# xmcd CD database file generated by OrangeCD 4.2
#
# Track frame offsets:
#	182
#	12902
#	25585
#	38030
#	50412
#	61107
#	72630
#	84062
#	94380
#	107242
#	127487
#	140272
#	154417
#	166702
#	177992
#	190267
#	203675
#	214680
#	224982
#	236622
#	247782
#	258110
#	273845
#	286815
#	297677
#	305547
#
# Disc length: 4223 seconds
#
# Revision: 2
# Processed by: cddbd v1.4PL0 Copyright (c) Steve Scherf et al.
# Submitted via: OrangeCD 4.2
#
DISCID=80107d1a
DTITLE=Jimmy Rogers - The Complete Chess Recordings [CD2]
DYEAR=1997
DGENRE=Blues
TTITLE0=Walking By Myself
TTITLE1=I Can't Believe
TTITLE2=One Kiss
TTITLE3=What Have I Done
TTITLE4=My Baby Don't Love Me No More
TTITLE5=Trace Of You
TTITLE6=Don't You Know My Baby
TTITLE7=Don't Turn Me Down
TTITLE8=Looka Here
TTITLE9=This Has Never Been
TTITLE10=Rock This House
TTITLE11=My Last Meal
TTITLE12=You Don't Know
TTITLE13=Can't Keep From Worrying
TTITLE14=Luedella (Alternate)
TTITLE15=Act Like You Love Me (Alternate)
TTITLE16=What Have I Done (Alternate)
TTITLE17=My Baby Don't Love Me No More (Alternate)
TTITLE18=Trace Of You (Alternate)
TTITLE19=Don't You Know My Baby (Alternate)
TTITLE20=Don't Turn Me Down (Alternate)
TTITLE21=This Has Never Been (Alternate)
TTITLE22=Rock This House (Alternate)
TTITLE23=My Last Meal (Alternate)
TTITLE24=You don't Know (Alternate)
TTITLE25=Can't Keep From Worrying (Alternate)
EXTD=
EXTT0=
EXTT1=
EXTT2=
EXTT3=
EXTT4=
EXTT5=
EXTT6=
EXTT7=
EXTT8=
EXTT9=
EXTT10=
EXTT11=
EXTT12=
EXTT13=
EXTT14=
EXTT15=
EXTT16=
EXTT17=
EXTT18=
EXTT19=
EXTT20=
EXTT21=
EXTT22=
EXTT23=
EXTT24=
EXTT25=
PLAYORDER=
